<svg xmlns="http://www.w3.org/2000/svg" width="3544" height="3544" viewBox="0 0 3544 3544" version="1.1">
	<path d="M 1032 1549.626 C 965.121 1552.948, 904.173 1571.673, 854.951 1604.022 C 800.140 1640.043, 759.447 1693.294, 736.523 1759 C 722.760 1798.449, 716.578 1839.242, 716.596 1890.500 C 716.614 1940.629, 722.238 1978.647, 735.516 2018.386 C 768.515 2117.152, 839.203 2186.116, 938 2215.932 C 971.974 2226.184, 1001.858 2230.732, 1041.500 2231.682 C 1144.170 2234.142, 1231.214 2203.506, 1293.381 2143.030 C 1348.377 2089.530, 1379.948 2016.871, 1386.984 1927.605 C 1388.290 1911.030, 1388.292 1870.004, 1386.987 1853.395 C 1382.995 1802.587, 1372.544 1763.167, 1352.020 1721.500 C 1335.757 1688.483, 1318.382 1664.329, 1293.369 1639.966 C 1278.170 1625.164, 1267.997 1616.897, 1251 1605.538 C 1206.582 1575.856, 1153.233 1557.437, 1094.500 1551.505 C 1079.917 1550.033, 1044.966 1548.981, 1032 1549.626 M 1711 1552.044 C 1623.757 1555.599, 1559.893 1579.646, 1516.371 1625.329 C 1486.791 1656.377, 1472.151 1690.704, 1468.966 1736.479 C 1467.208 1761.750, 1470.328 1790.416, 1477.187 1812 C 1486.015 1839.782, 1507.057 1869.250, 1532.322 1889.212 C 1563.861 1914.131, 1604.520 1932.342, 1701.500 1964.983 C 1717.450 1970.351, 1734.550 1976.414, 1739.500 1978.455 C 1753.685 1984.305, 1769.251 1992.752, 1774.812 1997.617 C 1788.089 2009.231, 1790.823 2030.470, 1781.169 2046.987 C 1777.171 2053.827, 1767.104 2063.172, 1759.339 2067.253 C 1742.338 2076.186, 1721.660 2079.436, 1686.500 2078.700 C 1661.201 2078.170, 1649.848 2076.874, 1630.534 2072.312 C 1598.919 2064.845, 1559.636 2046.709, 1532.569 2027.085 L 1525.639 2022.060 1522.069 2024.187 C 1509.463 2031.698, 1491.691 2047.969, 1483.395 2059.596 C 1473.037 2074.110, 1468.828 2088.097, 1468.828 2108 C 1468.828 2123.805, 1470.753 2132.786, 1476.867 2145.500 C 1486.748 2166.048, 1507.220 2184.803, 1534.590 2198.383 C 1564.835 2213.390, 1599.783 2222.416, 1648 2227.673 C 1668.046 2229.858, 1723.113 2230.122, 1746.500 2228.145 C 1833.663 2220.776, 1894.696 2194.990, 1935.556 2148.271 C 1964.559 2115.109, 1979 2075.129, 1979 2028 C 1979 1977.564, 1963.679 1934.396, 1934.838 1903.571 C 1900.981 1867.383, 1847.746 1837.767, 1771.500 1812.702 C 1758.850 1808.543, 1737.248 1801.510, 1723.496 1797.072 C 1696.540 1788.373, 1682.100 1781.970, 1672.840 1774.611 C 1658.374 1763.113, 1656.666 1742.178, 1669.022 1727.808 C 1674.156 1721.837, 1684.827 1714.728, 1693.631 1711.415 C 1721.542 1700.909, 1778.515 1700.561, 1823.829 1710.621 C 1849.981 1716.426, 1878.757 1727.003, 1897.218 1737.594 L 1901.936 1740.301 1908.423 1734.605 C 1934.585 1711.636, 1946.442 1685.574, 1944.715 1654.837 C 1944.036 1642.749, 1942.210 1635.200, 1937.600 1625.422 C 1919.311 1586.636, 1867.037 1561.655, 1788.209 1554.028 C 1777.790 1553.020, 1733.437 1550.855, 1730 1551.186 C 1729.175 1551.266, 1720.625 1551.652, 1711 1552.044 M 2286 1552.025 C 2262.803 1552.889, 2229.572 1555.344, 2211 1557.565 C 2164.374 1563.143, 2120.229 1575.259, 2102.403 1587.372 C 2095.713 1591.918, 2088.908 1599.237, 2086.041 1604.969 C 2080.142 1616.766, 2080.500 1598.999, 2080.500 1880 L 2080.500 2138.500 2082.705 2146.763 C 2090.758 2176.938, 2111.099 2194.871, 2152.565 2208.353 C 2166.707 2212.951, 2172.125 2214.276, 2191.500 2217.874 C 2239.770 2226.837, 2291.946 2230.976, 2340 2229.653 C 2467.113 2226.154, 2563.334 2182.210, 2621.706 2101 C 2646.082 2067.086, 2664.848 2022.491, 2673.416 1978.115 C 2682.027 1933.519, 2683.574 1875.654, 2677.443 1827.500 C 2662.998 1714.042, 2601.449 1628.360, 2504.201 1586.327 C 2444.503 1560.525, 2370.434 1548.881, 2286 1552.025 M 3109.500 1551.682 C 3039.726 1553.782, 2968.545 1573.564, 2913.805 1606.068 C 2833.328 1653.854, 2778.065 1733.618, 2762.125 1825 C 2750.562 1891.285, 2755.578 1963.241, 2775.683 2019.500 C 2791.864 2064.777, 2820.495 2108.337, 2854.316 2139.134 C 2895.373 2176.519, 2946.214 2202.392, 3007.315 2216.995 C 3083.270 2235.146, 3171.487 2234.062, 3250.928 2214.001 C 3296.031 2202.610, 3329.985 2186.407, 3350.316 2166.570 C 3361.295 2155.858, 3365.336 2148.443, 3368.703 2132.833 C 3370.377 2125.068, 3370.500 2116.116, 3370.500 2001.500 C 3370.500 1886.088, 3370.388 1878.022, 3368.681 1870.746 C 3363.331 1847.944, 3348.961 1833.364, 3325.342 1826.779 C 3317.575 1824.613, 3316.596 1824.589, 3222.622 1824.236 C 3165.510 1824.022, 3123.874 1824.268, 3118.019 1824.855 C 3088.971 1827.765, 3070.690 1843.651, 3064.343 1871.500 C 3061.505 1883.949, 3061.765 1911.076, 3064.855 1924.961 C 3067.280 1935.857, 3072.866 1952.375, 3077.468 1962.250 L 3080.147 1968 3137.073 1968 L 3194 1968 3194 2017.877 L 3194 2067.754 3188.750 2070.016 C 3180.498 2073.572, 3164.528 2077.839, 3153.160 2079.528 C 3140.857 2081.354, 3112.127 2081.595, 3099.291 2079.978 C 3042.729 2072.856, 2998.910 2045.948, 2973.999 2003.043 C 2955.084 1970.464, 2947.648 1939.730, 2947.616 1894 C 2947.595 1864.620, 2950.110 1845.694, 2957.062 1822.908 C 2971.968 1774.051, 3005.796 1736.930, 3053.540 1717.038 C 3100.187 1697.603, 3168.317 1695.824, 3220.500 1712.679 C 3238.508 1718.495, 3273.656 1734.046, 3290.637 1743.709 L 3297.774 1747.770 3303.137 1743.775 C 3321.994 1729.725, 3336.565 1708.410, 3340.987 1688.409 C 3348.612 1653.919, 3335.641 1620.405, 3306.026 1598.074 C 3274.671 1574.431, 3235.874 1560.781, 3182.256 1554.527 C 3170.440 1553.149, 3125.616 1550.753, 3120.500 1551.226 C 3119.400 1551.328, 3114.450 1551.533, 3109.500 1551.682 M 259.952 1570.018 C 223.774 1572.783, 196.517 1590.157, 182.589 1619.330 C 177.208 1630.601, 174.414 1641.117, 172.982 1655.500 C 172.211 1663.237, 171.986 1735.904, 172.222 1900.500 L 172.558 2134.500 174.671 2143.500 C 179.092 2162.334, 185.733 2175.433, 196.841 2187.223 C 209.860 2201.044, 222.973 2208.419, 244 2213.749 C 249.884 2215.240, 266.579 2215.427, 420.207 2215.720 C 605.728 2216.075, 596.819 2216.328, 610.259 2210.309 C 616.438 2207.542, 625.268 2201.066, 629.661 2196.081 C 633.417 2191.818, 638.732 2180.942, 640.924 2173.031 C 648.537 2145.558, 644.609 2108.807, 631.005 2080.250 L 626.123 2070 489.561 2070 L 353 2070 353 2014 L 353 1958 454.412 1958 C 566.908 1958, 564.933 1958.103, 578.825 1951.506 C 588.020 1947.139, 598.419 1937.123, 602.276 1928.917 C 615.657 1900.451, 612.927 1855.666, 595.715 1821.288 L 592.317 1814.500 472.658 1814.246 L 353 1813.992 353 1764.527 L 353 1715.062 471.750 1714.742 C 582.423 1714.444, 590.908 1714.300, 596.500 1712.631 C 621.311 1705.226, 634.724 1689.148, 638.998 1661.688 C 640.568 1651.604, 640.307 1628.571, 638.495 1617.314 C 636.597 1605.520, 630.271 1586.103, 625.198 1576.500 L 621.500 1569.500 445.500 1569.394 C 348.700 1569.336, 265.203 1569.617, 259.952 1570.018 M 1030.438 1700.538 C 1000.325 1704.935, 976.602 1716.464, 956.487 1736.477 C 935.580 1757.278, 923.189 1780.782, 915.039 1815.100 C 904.933 1857.652, 904.927 1922.973, 915.025 1965.930 C 928.810 2024.572, 961.804 2062.797, 1011 2077.122 C 1033.196 2083.585, 1065.902 2083.919, 1090.056 2077.930 C 1140.643 2065.387, 1176.304 2024.884, 1189.926 1964.500 C 1195.550 1939.569, 1197.432 1916.319, 1196.704 1880.758 C 1195.990 1845.871, 1193.226 1825.508, 1185.811 1800.509 C 1171.026 1750.668, 1136.874 1715.237, 1092.721 1703.934 C 1073.960 1699.131, 1049.287 1697.786, 1030.438 1700.538 M 2302.500 1701.673 C 2295.257 1702.127, 2275.290 1703.942, 2269.750 1704.650 L 2265 1705.258 2265 1890.110 L 2265 2074.962 2267.250 2075.480 C 2282.754 2079.046, 2331.434 2081.159, 2349.734 2079.059 C 2411.093 2072.019, 2452.621 2042.043, 2474.080 1989.304 C 2484.966 1962.549, 2490 1932.259, 2490 1893.511 C 2490 1816.930, 2469.241 1764.322, 2426.298 1732.079 C 2393.996 1707.825, 2355.455 1698.359, 2302.500 1701.673 M 2426.500 2318.635 C 2392.535 2322.269, 2364.048 2338.055, 2344.141 2364.275 C 2329.700 2383.297, 2322.195 2401.507, 2324.491 2411.960 C 2325.113 2414.792, 2325.464 2415, 2329.612 2415 C 2340.186 2415, 2344.308 2410.666, 2355.069 2388.234 C 2362.306 2373.145, 2363.548 2371.193, 2369.151 2366.093 C 2383.568 2352.971, 2397.295 2344.990, 2412.500 2340.887 C 2423.940 2337.800, 2444.063 2337.783, 2456 2340.850 C 2490.155 2349.625, 2524.917 2383.929, 2538.182 2421.950 C 2546.542 2445.912, 2547.012 2475.941, 2539.406 2500.156 C 2534.777 2514.892, 2522.794 2537.033, 2517.294 2541.011 C 2510.302 2546.068, 2489.804 2563.459, 2486.165 2567.421 C 2481.044 2572.995, 2476.285 2582.644, 2475.373 2589.298 L 2474.721 2594.051 2482.813 2590.638 C 2509.707 2579.296, 2531.391 2560.959, 2544.635 2538.359 C 2549.499 2530.060, 2555.102 2515.809, 2557.977 2504.426 C 2562.072 2488.212, 2563.385 2473.938, 2562.695 2453.151 C 2561.848 2427.638, 2557.998 2411.210, 2548.006 2390.462 C 2538.641 2371.017, 2525.271 2354.426, 2509.552 2342.742 C 2495.256 2332.116, 2473.152 2322.804, 2455.648 2320.032 C 2448.079 2318.834, 2431.895 2318.058, 2426.500 2318.635 M 2428.500 2350.408 C 2409.939 2354.979, 2395.131 2361.142, 2389.730 2366.542 C 2387.367 2368.906, 2387.148 2369.567, 2388.231 2371.066 C 2388.929 2372.032, 2394.422 2379.718, 2400.437 2388.146 C 2406.452 2396.575, 2413.526 2405.535, 2416.156 2408.057 C 2420.975 2412.676, 2430.101 2418, 2433.203 2418 C 2435.227 2418, 2435.075 2418.974, 2439.341 2378.750 L 2442.601 2348 2440.051 2348.095 C 2438.648 2348.148, 2433.450 2349.188, 2428.500 2350.408 M 2455.993 2352.250 C 2455.989 2352.938, 2455.304 2362.275, 2454.470 2373 C 2451.771 2407.733, 2452.685 2424, 2457.335 2424 C 2461.450 2424, 2481.312 2407.561, 2499.380 2389.201 L 2507.261 2381.193 2502.574 2376.182 C 2494.021 2367.039, 2479.643 2358.216, 2465.631 2353.512 C 2457.111 2350.652, 2456.003 2350.507, 2455.993 2352.250 M 3311 2359.329 C 3305.272 2362.345, 3303.380 2364.120, 3291.903 2377.245 C 3285.057 2385.075, 3278.941 2391.182, 3277.692 2391.435 C 3276.487 2391.680, 3271.900 2392.088, 3267.500 2392.343 C 3257.731 2392.909, 3250.400 2395.561, 3242.878 2401.249 C 3225.298 2414.544, 3217.469 2433.401, 3221.424 2452.923 C 3222.850 2459.957, 3222.898 2461.475, 3221.743 2462.862 C 3220.994 2463.763, 3216.105 2469.450, 3210.880 2475.500 C 3205.655 2481.550, 3194.448 2494.825, 3185.974 2505 C 3161.065 2534.911, 3136.214 2563.803, 3126.623 2574 L 3117.688 2583.500 3034.094 2584 L 2950.500 2584.500 2967 2601.987 C 3001.290 2638.328, 3076.506 2717.710, 3081.401 2722.723 L 3086.500 2727.946 3102.205 2710.723 C 3110.842 2701.250, 3131.251 2680.225, 3147.558 2664 C 3188.157 2623.604, 3201.016 2610.296, 3212.875 2596.401 L 3223.032 2584.500 3191.079 2584 L 3159.125 2583.500 3165.664 2576 C 3169.260 2571.875, 3180.043 2558.945, 3189.626 2547.267 C 3211.587 2520.506, 3232.785 2496.183, 3244.546 2484.250 L 3253.663 2475 3261.121 2475 C 3284.581 2475, 3302.184 2461.289, 3307.460 2438.907 C 3309.097 2431.963, 3309.411 2418.074, 3308.085 2411.221 C 3307.123 2406.244, 3307.666 2405.313, 3317.546 2395 C 3326.675 2385.471, 3330.782 2379.559, 3332.587 2373.347 C 3334.154 2367.959, 3334.142 2367.788, 3332.097 2366.355 C 3330.931 2365.539, 3330 2363.791, 3330 2362.419 C 3330 2360.689, 3329.232 2359.659, 3327.435 2358.975 C 3323.749 2357.574, 3313.931 2357.785, 3311 2359.329 M 2365.273 2390.799 C 2357.261 2403.452, 2351.540 2413.873, 2352.227 2414.561 C 2352.426 2414.759, 2361.344 2415.026, 2372.044 2415.153 C 2386.028 2415.320, 2392.675 2415.011, 2395.679 2414.055 L 2399.858 2412.726 2396.063 2407.613 C 2393.976 2404.801, 2390.354 2399.179, 2388.014 2395.120 C 2383.696 2387.629, 2378.043 2380.628, 2374.994 2378.997 C 2373.600 2378.251, 2371.953 2380.249, 2365.273 2390.799 M 2510.143 2400.244 C 2509.028 2402.035, 2501.789 2409.768, 2494.057 2417.430 C 2478.840 2432.509, 2475 2438.190, 2475 2445.624 C 2475 2449.856, 2475 2449.856, 2480.750 2452.044 C 2485.555 2453.871, 2489.706 2454.368, 2506 2455.063 C 2516.725 2455.521, 2527.072 2456.369, 2528.993 2456.948 C 2530.915 2457.527, 2532.669 2458, 2532.892 2458 C 2533.827 2458, 2532.026 2434.866, 2530.518 2427.500 C 2527.823 2414.339, 2521.481 2402.470, 2515.153 2398.744 L 2512.171 2396.988 2510.143 2400.244 M 387.214 2424.015 C 378.573 2425.213, 371.784 2428.557, 357.079 2438.856 C 350.161 2443.702, 343.944 2447.989, 343.264 2448.384 C 342.510 2448.821, 340.819 2447.724, 338.928 2445.571 C 334.854 2440.931, 324.777 2436.039, 317.811 2435.320 C 306.895 2434.193, 300.972 2438.043, 287.468 2455.040 C 282.194 2461.678, 277.221 2467.362, 276.415 2467.671 C 275.610 2467.980, 273.264 2467.117, 271.203 2465.753 C 265.169 2461.760, 259.256 2459, 256.736 2459 C 253.532 2459, 246.307 2463.767, 241.635 2468.962 C 231.559 2480.168, 228.339 2500.140, 234.119 2515.588 C 236.468 2521.867, 243.474 2530.021, 249.607 2533.615 L 253.982 2536.179 277.741 2534.976 C 292.223 2534.243, 330.784 2533.802, 376.500 2533.848 C 449.327 2533.920, 508.889 2532.665, 512.015 2530.992 C 512.859 2530.540, 516.239 2524.627, 519.525 2517.852 C 524.849 2506.876, 525.482 2504.918, 525.331 2499.885 C 525.042 2490.246, 519.979 2483.052, 512.119 2481.114 C 510.129 2480.623, 502.650 2478.806, 495.500 2477.075 C 488.350 2475.344, 481.935 2473.363, 481.244 2472.672 C 480.553 2471.982, 478.018 2466.939, 475.609 2461.465 C 473.180 2455.947, 470.176 2450.728, 468.865 2449.749 C 466.059 2447.655, 454.708 2445.453, 439.500 2444.052 C 433.450 2443.495, 426.725 2442.478, 424.556 2441.792 C 419.159 2440.086, 414.539 2435.199, 413.165 2429.743 C 412.204 2425.923, 411.592 2425.168, 409.047 2424.659 C 403.005 2423.451, 393.334 2423.165, 387.214 2424.015 M 2259 2429.093 C 2231.394 2430.241, 2215.686 2435.549, 2203.327 2447.909 C 2195.367 2455.868, 2194.674 2458.551, 2194.199 2483.224 C 2192.997 2545.632, 2206.478 2843.174, 2212.153 2879.500 C 2216.601 2907.976, 2250.249 2929.496, 2300.449 2935.973 C 2313.871 2937.705, 2340.467 2937.483, 2355 2935.518 C 2394.366 2930.197, 2425.427 2916.010, 2439.467 2896.938 C 2441.872 2893.670, 2444.538 2888.860, 2445.390 2886.248 C 2448.836 2875.685, 2451.144 2840.718, 2456.524 2717.500 C 2457.893 2686.150, 2460.387 2634.400, 2462.066 2602.500 C 2467.005 2508.666, 2467.093 2465.379, 2462.370 2454.016 C 2460.196 2448.789, 2452.474 2441.486, 2446.091 2438.621 C 2431.474 2432.062, 2422.980 2431.332, 2345.500 2429.986 C 2312.500 2429.413, 2283.025 2428.832, 2280 2428.696 C 2276.975 2428.560, 2267.525 2428.739, 2259 2429.093 M 1545.252 2438.036 C 1536.770 2442.371, 1533.085 2449.128, 1526.181 2473 C 1510.679 2526.605, 1492.865 2599.695, 1487.550 2631.500 C 1471.523 2727.403, 1478.731 2797.444, 1509.540 2845.186 C 1534.221 2883.432, 1576.646 2907.865, 1641 2920.897 C 1648.975 2922.512, 1659.730 2924.394, 1664.900 2925.079 C 1672.962 2926.148, 1674.786 2926.751, 1677.709 2929.318 C 1684.944 2935.670, 1688.028 2946.609, 1688.311 2966.918 C 1688.415 2974.388, 1688.388 2992.339, 1688.250 3006.810 L 1688 3033.120 1682.857 3038.557 C 1666.371 3055.989, 1645.706 3061.711, 1591 3063.991 C 1576.975 3064.576, 1563.615 3065.291, 1561.310 3065.580 L 1557.120 3066.105 1555.934 3071.802 C 1554.416 3079.094, 1554.457 3093.752, 1556.017 3101.680 L 1557.230 3107.848 1656.365 3108.188 C 1751.743 3108.515, 1821.818 3107.893, 1851.635 3106.452 L 1865.770 3105.770 1866.885 3100.218 C 1868.316 3093.093, 1868.308 3081.750, 1866.866 3073.017 C 1865.929 3067.345, 1865.363 3066.062, 1863.616 3065.645 C 1860.576 3064.919, 1846.950 3064.089, 1819.500 3062.957 C 1783.667 3061.480, 1767.356 3058.742, 1753.892 3051.945 C 1734.511 3042.162, 1731.340 3031.461, 1734.347 2986 C 1735.367 2970.576, 1735.773 2956.692, 1735.374 2950.864 L 1734.713 2941.228 1740.607 2934.221 C 1743.848 2930.367, 1747.850 2926.519, 1749.500 2925.670 C 1751.150 2924.821, 1756.550 2923.629, 1761.500 2923.022 C 1821.014 2915.719, 1869.221 2894.333, 1899.406 2861.842 C 1923.902 2835.474, 1937.948 2801.171, 1942.071 2757.649 C 1944.615 2730.786, 1942.082 2683.314, 1936.001 2643.910 C 1925.934 2578.674, 1896.855 2470.297, 1882.229 2443.500 L 1879.500 2438.500 1872.500 2437.768 C 1868.650 2437.366, 1794.400 2436.773, 1707.500 2436.451 L 1549.500 2435.865 1545.252 2438.036 M 2222.605 2451.470 C 2215.426 2456.384, 2212.068 2461.814, 2208.776 2473.831 C 2206.940 2480.533, 2206.691 2484.023, 2206.804 2501.500 C 2206.875 2512.500, 2207.624 2530.500, 2208.468 2541.500 C 2209.312 2552.500, 2211.388 2588.050, 2213.081 2620.500 C 2215.774 2672.128, 2216.194 2687.746, 2216.437 2745.500 C 2216.662 2798.819, 2217.038 2814.574, 2218.397 2827.500 C 2222.663 2868.097, 2227.664 2883.112, 2240.906 2895.084 C 2251.971 2905.088, 2267.796 2911.918, 2290.500 2916.489 C 2321.592 2922.750, 2346.939 2921.969, 2374.186 2913.910 C 2396.122 2907.423, 2417.876 2894.400, 2428.561 2881.361 L 2432.071 2877.077 2433.522 2848.288 C 2434.321 2832.455, 2437.211 2783.725, 2439.945 2740 C 2447.127 2625.137, 2448.154 2601.127, 2448.157 2548 C 2448.160 2493.273, 2446.706 2460.177, 2444.214 2458.241 C 2440.612 2455.443, 2424.488 2452.548, 2403.375 2450.909 C 2395.744 2450.316, 2352.825 2449.600, 2308 2449.318 L 2226.500 2448.804 2222.605 2451.470 M 1057.500 2457.023 C 986.731 2462.729, 949.297 2476.161, 934.689 2501.088 C 930.928 2507.505, 928.664 2517.253, 929.256 2524.485 C 929.718 2530.144, 931.016 2534.398, 939.017 2556.500 C 943.846 2569.839, 944.068 2578.500, 940.044 2596.500 C 930.705 2638.267, 935.350 2722.070, 952.060 2813.276 C 957.641 2843.739, 964.126 2873.181, 976.999 2926.500 C 996.240 3006.198, 996.346 3006.700, 994.789 3011.201 C 993.050 3016.233, 986.836 3025.956, 975.793 3040.926 C 964.818 3055.803, 960.774 3062.988, 958.449 3071.743 C 956.047 3080.787, 956.564 3096.225, 959.604 3106.250 C 960.105 3107.901, 965.543 3108, 1055.470 3108 L 1150.804 3108 1152 3104.750 C 1152.657 3102.963, 1153.426 3096.325, 1153.708 3090 C 1154.559 3070.905, 1151.463 3062.832, 1133.574 3037.500 C 1127.748 3029.250, 1121.162 3018.889, 1118.939 3014.475 L 1114.896 3006.451 1118.003 2992.475 C 1119.712 2984.789, 1123.134 2970.437, 1125.607 2960.582 C 1147.622 2872.874, 1158.515 2821.665, 1165.934 2771 C 1172.727 2724.617, 1175.301 2691.173, 1175.248 2650 C 1175.151 2575.315, 1164.003 2520.097, 1142.422 2487.418 C 1133.274 2473.566, 1117.707 2461.554, 1105 2458.542 C 1096.917 2456.626, 1072.214 2455.836, 1057.500 2457.023 M 2480.274 2479.804 C 2481.312 2495.828, 2484.554 2501.953, 2501.753 2520.388 L 2512.500 2531.908 2515.904 2525.204 C 2524.251 2508.762, 2533 2484.500, 2533 2477.793 C 2533 2475.565, 2532.545 2474.999, 2530.750 2474.995 C 2529.512 2474.993, 2518.825 2474.100, 2507 2473.012 C 2495.175 2471.923, 2484.196 2471.025, 2482.602 2471.016 L 2479.704 2471 2480.274 2479.804 M 1606 2482.132 C 1593.625 2482.586, 1579.480 2483.304, 1574.567 2483.728 L 1565.633 2484.500 1559.291 2505.500 C 1534.363 2588.035, 1523.506 2634.110, 1518.879 2677 C 1517.192 2692.642, 1517.157 2744.480, 1518.825 2758.471 C 1523.293 2795.972, 1531.941 2817.142, 1550.105 2835.048 C 1574.743 2859.338, 1616.368 2875.551, 1669.561 2881.579 C 1687.448 2883.606, 1729.345 2883.859, 1747.500 2882.049 C 1791.154 2877.697, 1826.167 2867.082, 1851.722 2850.450 C 1862.402 2843.498, 1864.362 2841.918, 1874.389 2832.170 C 1880.747 2825.988, 1883.001 2822.948, 1886.008 2816.500 C 1900.538 2785.343, 1907.078 2741.701, 1904.067 2696 C 1900.078 2635.477, 1885.116 2566.382, 1861.638 2500.067 L 1855.419 2482.500 1821.460 2481.892 C 1772.336 2481.011, 1632.339 2481.168, 1606 2482.132 M 1054.500 2483.105 C 1040.646 2483.938, 1025.631 2486.709, 1009.112 2491.479 C 973.391 2501.794, 956.865 2514.937, 957.844 2532.250 L 958 2535 1044.500 2535 C 1092.075 2535, 1131 2534.693, 1131 2534.317 C 1131 2533.007, 1120.780 2509.467, 1118.272 2505 C 1114.706 2498.649, 1108.325 2492.254, 1102.655 2489.351 C 1096.961 2486.435, 1083.393 2483.386, 1073.500 2482.799 C 1069.650 2482.570, 1061.100 2482.708, 1054.500 2483.105 M 3284.804 2500.620 C 3255.111 2504.918, 3238.172 2516.804, 3235.471 2535.237 L 3234.777 2539.973 3269.108 2540.237 L 3303.439 2540.500 3287.563 2557.500 C 3232.952 2615.974, 3104.744 2746.306, 3088.150 2760.217 L 3083.800 2763.863 3078.681 2757.713 C 3075.866 2754.330, 3055.549 2733.203, 3033.531 2710.765 C 2921.743 2596.839, 2868.573 2540.094, 2871.174 2537.493 C 2871.423 2537.243, 2917.274 2537.018, 2973.064 2536.993 C 3064.754 2536.950, 3087.498 2537.374, 3113.047 2539.601 L 3120.594 2540.259 3132.047 2528.079 C 3142.466 2516.998, 3151 2505.464, 3151 2502.461 C 3151 2501.104, 2928.201 2499.338, 2895.368 2500.435 C 2857.589 2501.698, 2818.087 2504.804, 2803.614 2507.651 L 2800.728 2508.219 2801.290 2514.925 C 2802.796 2532.879, 2809.777 2542.621, 2837.500 2565.455 C 2855.484 2580.267, 2855.032 2579.812, 2919.040 2647.500 C 2951.806 2682.150, 2992.484 2724.900, 3009.434 2742.500 C 3039.928 2774.162, 3056.898 2792.853, 3061.527 2799.876 C 3065.316 2805.624, 3067.172 2818.575, 3067.740 2843.229 C 3068.247 2865.230, 3067.736 2874.928, 3063.823 2917.500 C 3061.482 2942.974, 3060.886 2992.917, 3062.802 3003 C 3063.704 3007.743, 3063.619 3008.677, 3062.188 3009.783 C 3059.873 3011.572, 3053.254 3013.541, 3005.994 3026.499 C 2953.047 3041.016, 2938.487 3046.505, 2927.716 3056.008 C 2921.994 3061.057, 2919.999 3064.600, 2920.004 3069.700 C 2920.021 3087.600, 2956.779 3098.906, 3036.500 3105.532 C 3063.081 3107.742, 3108.329 3108.522, 3128 3107.110 C 3190.132 3102.651, 3229.784 3090.942, 3245.922 3072.287 L 3250.064 3067.500 3244.682 3062.433 C 3233.428 3051.838, 3215.009 3043.200, 3183 3033.506 C 3139.185 3020.238, 3123.206 3014.685, 3110.918 3008.459 L 3106 3005.966 3106.027 2902.733 L 3106.054 2799.500 3136.777 2767.537 C 3153.675 2749.957, 3204.400 2698.428, 3249.500 2653.027 C 3342.040 2559.871, 3356.713 2543.606, 3367.245 2522.500 C 3373.012 2510.943, 3373.135 2511.656, 3364.783 2508.202 C 3354.581 2503.982, 3347.971 2502.141, 3337 2500.464 C 3325.077 2498.641, 3297.912 2498.723, 3284.804 2500.620 M 2477.500 2534.005 C 2476.573 2551.897, 2478.691 2562.311, 2482.317 2557.693 C 2482.967 2556.864, 2486.076 2554.563, 2489.224 2552.579 C 2495.953 2548.339, 2499 2545.305, 2499 2542.848 C 2499 2540.988, 2484.197 2524.015, 2480.412 2521.534 L 2478.220 2520.098 2477.500 2534.005 M 2268.929 2526.025 C 2255.415 2526.460, 2239.474 2527.307, 2233.505 2527.908 C 2227.536 2528.508, 2222.385 2529, 2222.058 2529 C 2221.730 2529, 2223.130 2560.613, 2225.168 2599.250 C 2227.206 2637.887, 2230.752 2713.367, 2233.048 2766.982 L 2237.223 2864.464 2240.089 2868.630 C 2244.514 2875.061, 2254.468 2884.550, 2260.265 2887.862 C 2266.673 2891.522, 2274.678 2893.722, 2276.168 2892.232 C 2276.886 2891.514, 2276.259 2882.907, 2274.136 2864.347 C 2272.447 2849.581, 2270.376 2828.234, 2269.533 2816.908 C 2267.995 2796.255, 2267.585 2750.872, 2268.850 2741.500 L 2269.526 2736.500 2270.756 2743.500 C 2272.522 2753.555, 2273.751 2767.778, 2275.509 2798.500 C 2276.358 2813.350, 2277.501 2830.652, 2278.048 2836.948 C 2280.020 2859.642, 2285.352 2878.507, 2292.561 2888.303 C 2296.752 2893.996, 2305.942 2900.209, 2313.832 2902.683 C 2321.853 2905.197, 2345.257 2905.170, 2357 2902.634 C 2377.832 2898.135, 2395.093 2890.906, 2407.500 2881.485 C 2419.692 2872.227, 2418.350 2878.434, 2421.891 2814.925 C 2427.516 2714.010, 2434.975 2550.611, 2434.998 2527.776 C 2435 2526.161, 2430.747 2526.049, 2367.901 2526.022 C 2330.996 2526.005, 2299.159 2525.822, 2297.151 2525.614 C 2295.143 2525.406, 2282.443 2525.591, 2268.929 2526.025 M 360.500 2550.051 C 334.100 2550.414, 288.379 2550.776, 258.898 2550.856 L 205.296 2551 201.929 2553.269 C 200.077 2554.517, 197.347 2557.554, 195.861 2560.019 C 193.403 2564.096, 193.017 2566.169, 191.583 2583 C 183.771 2674.665, 182.287 2839.728, 187.501 3036.992 C 188.807 3086.411, 189.101 3091.601, 190.664 3092.744 C 193.662 3094.935, 208.140 3100.146, 218 3102.582 C 241.212 3108.316, 272.545 3109.425, 343.500 3107.024 C 359.450 3106.485, 386.719 3106.034, 404.098 3106.022 C 473.106 3105.974, 540.033 3102.493, 560.656 3097.878 C 566.232 3096.630, 566.020 3096.963, 568.549 3085.500 C 568.913 3083.850, 569.567 3069, 570.001 3052.500 C 570.602 3029.695, 571.187 3021.071, 572.437 3016.542 C 573.343 3013.265, 574.213 3010.453, 574.373 3010.294 C 574.532 3010.135, 578.226 3011.070, 582.581 3012.372 C 599.730 3017.499, 616.183 3018.231, 629 3014.436 C 668.803 3002.650, 693.932 2953.263, 697.979 2878.867 C 700.225 2837.572, 693.402 2787.833, 681.406 2758.063 C 674.278 2740.375, 665.198 2728.652, 654.405 2723.205 C 644.098 2718.003, 638.867 2716.958, 618 2715.930 C 594.640 2714.780, 581.085 2713.420, 575 2711.614 L 570.500 2710.279 570.286 2653.014 C 570.124 2609.696, 569.697 2592.188, 568.531 2581.125 C 566.246 2559.434, 566.967 2560.821, 556.934 2558.808 C 546.324 2556.679, 520.356 2553.354, 504 2552.030 C 486.596 2550.621, 439.310 2548.983, 422.500 2549.206 C 414.800 2549.308, 386.900 2549.688, 360.500 2550.051 M 970.009 2572.489 C 969.324 2573.314, 969.004 2575.227, 969.298 2576.744 C 969.591 2578.260, 969.220 2584.450, 968.473 2590.500 C 959.747 2661.170, 969.411 2762.725, 996.116 2881 C 999.407 2895.575, 1004.358 2917.175, 1007.118 2929 C 1016.860 2970.738, 1022.001 2999.689, 1021.999 3012.805 C 1021.998 3022.098, 1018.760 3028.456, 1005.778 3044.654 C 994.383 3058.873, 989.945 3066.802, 989.212 3074.250 L 988.746 3079 1055.503 3079 L 1122.260 3079 1121.744 3074.423 C 1121.026 3068.054, 1115.192 3056.884, 1107.942 3048 C 1098.934 3036.962, 1092.203 3026.422, 1090.501 3020.692 C 1086.399 3006.878, 1090.338 2982.384, 1109.511 2902.500 C 1141.249 2770.257, 1149.036 2717.767, 1147.707 2645.030 C 1147.184 2616.464, 1145.988 2600.730, 1142.723 2579.500 L 1141.493 2571.500 1056.374 2571.244 C 981.725 2571.020, 971.101 2571.173, 970.009 2572.489 M 245.133 2598.560 C 233.193 2602.627, 232.726 2603.003, 230.202 2610.562 C 220.509 2639.591, 217.351 2686.971, 218.775 2782 C 219.497 2830.169, 219.393 2848.513, 218.267 2872 C 216.330 2912.385, 216.119 2969.968, 217.849 2986 C 219.454 3000.876, 223.100 3019.983, 226.055 3029 C 231.094 3044.379, 239.646 3056.146, 248.780 3060.270 C 254.883 3063.026, 266.918 3063.242, 271.737 3060.682 C 286.243 3052.975, 294.484 3033.046, 298.673 2995.537 C 300.449 2979.643, 300.657 2929.038, 299.150 2880 C 298.668 2864.325, 298.642 2839.351, 299.092 2824.502 C 301.421 2747.612, 302.076 2699.041, 301.012 2682.134 C 298.390 2640.483, 292.757 2619.055, 280.893 2605.606 C 272.264 2595.824, 260.166 2593.440, 245.133 2598.560 M 370 2596.637 C 353.769 2599.007, 343.256 2604.545, 336.117 2614.487 L 333 2618.827 332.972 2748.163 C 332.950 2852.539, 332.654 2881.842, 331.438 2900 C 330.609 2912.375, 329.664 2938.025, 329.338 2957 C 328.851 2985.362, 329.032 2993.828, 330.358 3004.587 C 334.082 3034.810, 342.937 3052.992, 357.303 3059.911 C 372.832 3067.391, 391.831 3065.586, 403.828 3055.491 C 413.318 3047.506, 421.201 3029.485, 425.089 3006.885 C 427.882 2990.651, 428.710 2945.536, 427.082 2898.230 C 426.443 2879.678, 425.485 2821.525, 424.951 2769 C 424.053 2680.552, 423.233 2647.482, 421.409 2626.147 C 420.757 2618.518, 420.372 2617.385, 416.960 2613.069 C 407.487 2601.084, 387.483 2594.085, 370 2596.637 M 485.281 2596.907 C 480.632 2598.102, 472.025 2602.565, 468.211 2605.759 C 465.230 2608.255, 464.789 2609.354, 463.507 2617.506 C 459.175 2645.058, 456.030 2727.477, 455.974 2814.928 C 455.960 2837.243, 455.295 2872.600, 454.497 2893.500 C 451.365 2975.492, 452.916 3005.872, 461.560 3031.838 C 468.518 3052.738, 482.012 3064.183, 497.988 3062.735 C 501.157 3062.447, 505.336 3061.460, 507.275 3060.540 C 520.964 3054.044, 529.659 3031.860, 532.963 2995 C 534.160 2981.643, 534.182 2941.284, 533.009 2912.500 C 532.561 2901.500, 531.701 2863.700, 531.098 2828.500 C 528.236 2661.412, 527.232 2635.143, 522.747 2610.106 L 521.601 2603.712 514.234 2600.213 C 507.768 2597.143, 505.742 2596.675, 497.683 2596.397 C 492.632 2596.222, 487.052 2596.452, 485.281 2596.907 M 984.685 2609.750 C 981.084 2635.633, 980.527 2644.906, 980.556 2678.500 C 980.609 2740.689, 986.245 2778.572, 1010.016 2876.500 C 1022.814 2929.221, 1036 2987.562, 1036 2991.462 C 1036 2991.758, 1044.702 2992, 1055.337 2992 L 1074.675 2992 1078.445 2973.750 C 1082.628 2953.506, 1091.726 2914.548, 1103.961 2864.500 C 1119.781 2799.783, 1126.562 2761.734, 1131.137 2712 C 1133.614 2685.076, 1132.230 2619.885, 1128.941 2608.547 C 1127.622 2604.002, 1122.114 2598, 1119.261 2598 C 1114.554 2598, 1112.799 2611.719, 1115.549 2627 C 1117.839 2639.720, 1118.701 2692.203, 1117.044 2718 C 1114.183 2762.546, 1107.658 2800.017, 1097.562 2829.861 C 1093.596 2841.587, 1087.795 2856.128, 1087.286 2855.619 C 1087.100 2855.433, 1087.843 2847.905, 1088.937 2838.890 C 1093.565 2800.762, 1097.102 2759.568, 1099.102 2720.500 C 1100.939 2684.609, 1099.623 2626.024, 1096.446 2602.250 L 1095.877 2598 1066.083 2598 L 1036.288 2598 1034.646 2612.250 C 1033.742 2620.088, 1031.877 2637.919, 1030.501 2651.876 C 1027.714 2680.137, 1025.637 2695.420, 1023.313 2704.750 L 1021.757 2711 1012.378 2711 C 1007.220 2711, 1002.997 2710.662, 1002.994 2710.250 C 1002.991 2709.838, 1002.560 2706.883, 1002.036 2703.685 C 1001.512 2700.486, 1000.592 2689.527, 999.990 2679.332 C 998.738 2658.107, 999.800 2634.780, 1003.014 2612.936 C 1004.101 2605.546, 1004.993 2599.162, 1004.995 2598.750 C 1004.998 2598.338, 1000.797 2598, 995.660 2598 L 986.320 2598 984.685 2609.750 M 2304.015 2706.196 C 2302.812 2708.503, 2298.328 2714.916, 2294.050 2720.446 C 2284.021 2733.411, 2278 2742.041, 2278 2743.452 C 2278 2744.069, 2280.229 2746.237, 2282.954 2748.272 C 2285.679 2750.306, 2293.170 2757.827, 2299.601 2764.985 C 2306.031 2772.143, 2311.641 2778, 2312.066 2778 C 2315.370 2778, 2342.600 2744.419, 2345.567 2736.686 C 2345.878 2735.877, 2344.394 2734.159, 2341.878 2732.416 C 2339.564 2730.812, 2334.097 2725.251, 2329.731 2720.058 C 2319.827 2708.280, 2312.149 2702, 2307.651 2702 C 2306.854 2702, 2305.218 2703.888, 2304.015 2706.196 M 2357.592 2744.250 C 2357.140 2747.191, 2354.969 2789.344, 2354.991 2794.750 L 2355 2797 2380 2797 L 2405 2797 2405 2769.654 L 2405 2742.309 2392.250 2741.658 C 2385.238 2741.301, 2374.683 2741.006, 2368.795 2741.004 L 2358.091 2741 2357.592 2744.250 M 581.299 2757.250 C 573.555 2770.502, 569.220 2794.655, 568.329 2829.500 C 567.721 2853.251, 568.485 2873.315, 572.097 2928.500 L 574.191 2960.500 576.984 2963.137 C 588.535 2974.039, 627.473 2974.228, 641.645 2963.450 C 644.004 2961.656, 645.584 2958.866, 647.970 2952.279 C 656.681 2928.231, 660.022 2901.819, 660.024 2857 C 660.026 2808.450, 655.390 2782.453, 643.236 2762.868 C 640.993 2759.253, 640.940 2759.232, 632.241 2758.545 C 627.433 2758.165, 615.254 2756.987, 605.175 2755.927 C 595.096 2754.867, 586.028 2754, 585.024 2754 C 584.019 2754, 582.343 2755.463, 581.299 2757.250 M 1550.683 2765.500 C 1547.518 2767.834, 1546.997 2770.564, 1548.557 2776.637 C 1555.584 2803.989, 1579.420 2826.211, 1615.320 2838.881 C 1635.747 2846.089, 1653.240 2849.136, 1676 2849.448 C 1690.808 2849.652, 1693.320 2849.946, 1700.500 2852.322 C 1710.364 2855.587, 1712.160 2855.608, 1722.355 2852.584 C 1726.835 2851.255, 1739.050 2848.969, 1749.500 2847.504 C 1806.790 2839.470, 1836.414 2828.920, 1854.842 2809.988 C 1861.733 2802.908, 1866.350 2795.446, 1869.571 2786.182 C 1871.499 2780.640, 1874.282 2767.058, 1873.635 2766.353 C 1873.561 2766.273, 1852.350 2765.685, 1826.500 2765.048 C 1769.324 2763.638, 1552.727 2763.993, 1550.683 2765.500 M 2348 2823.667 C 2337.670 2832.866, 2329.131 2839.528, 2325.618 2841.128 C 2324.178 2841.784, 2323 2842.759, 2323 2843.295 C 2323 2846.669, 2349.954 2891.919, 2352 2891.979 C 2352.275 2891.987, 2358.350 2886.977, 2365.500 2880.845 C 2372.650 2874.714, 2380.863 2867.911, 2383.750 2865.729 C 2386.637 2863.546, 2389 2861.355, 2389 2860.860 C 2389 2859.166, 2379.743 2841.507, 2374.861 2833.887 C 2369.885 2826.121, 2360.173 2815.961, 2357.810 2816.049 C 2357.089 2816.075, 2352.675 2819.503, 2348 2823.667 M 2301 2954.911 C 2301 2960.732, 2303.675 2973.064, 2306.637 2980.903 C 2308.319 2985.353, 2309.314 2990.464, 2309.694 2996.608 L 2310.258 3005.715 2303.879 3010.253 C 2300.370 3012.749, 2288.500 3019.854, 2277.500 3026.042 C 2266.500 3032.230, 2255.475 3038.674, 2253 3040.362 C 2234.282 3053.127, 2224.025 3071.580, 2222.079 3095.990 C 2221.618 3101.771, 2221.438 3106.838, 2221.679 3107.250 C 2221.921 3107.662, 2270.415 3108, 2329.445 3108 L 2436.773 3108 2437.430 3103.621 C 2438.181 3098.608, 2436.708 3085.140, 2434.468 3076.537 C 2432.208 3067.860, 2426.286 3057.379, 2419.614 3050.247 C 2411.425 3041.492, 2399.616 3033.909, 2374.005 3020.958 C 2352.697 3010.182, 2352.025 3009.750, 2351.033 3006.179 C 2349.111 2999.257, 2349.883 2992.603, 2354.439 2976.850 C 2356.880 2968.407, 2359.198 2959.068, 2359.588 2956.095 L 2360.299 2950.690 2356.995 2951.351 C 2355.178 2951.714, 2348.420 2952.512, 2341.976 2953.124 C 2330.844 2954.181, 2317.328 2953.549, 2304.750 2951.384 L 2301 2950.738 2301 2954.911 M 3057.516 3047.596 C 3044.046 3050.605, 3031.118 3056.708, 3021.136 3064.771 L 3018.771 3066.681 3030.136 3067.336 C 3046.842 3068.299, 3110.378 3068.076, 3125.983 3067 C 3141.515 3065.929, 3154.473 3064.030, 3153.304 3062.997 C 3150.071 3060.137, 3125.858 3051.989, 3111.439 3048.909 C 3097.957 3046.029, 3067.816 3045.295, 3057.516 3047.596" stroke="none" fill="black" fill-rule="evenodd"/>
</svg>